<?xml version="1.0" encoding="UTF-8" standalone="no"?>
<!-- Created with Inkscape (http://www.inkscape.org/) -->

<svg
   width="210mm"
   height="297mm"
   viewBox="0 0 210 297"
   version="1.1"
   id="svg5"
   xmlns="http://www.w3.org/2000/svg"
   xmlns:svg="http://www.w3.org/2000/svg">
  <defs
     id="defs2" />
  <g
     id="layer1">
    <ellipse
       style="fill:#00ff00;stroke-width:0.166565"
       id="path279"
       cx="103.81019"
       cy="130.73042"
       rx="31.053141"
       ry="3.1503549" />
    <ellipse
       style="fill:#280b0b;stroke-width:0.264583"
       id="path407"
       cx="55.756947"
       cy="129.70695"
       rx="2.7433624"
       ry="18.74354" />
    <text
       xml:space="preserve"
       style="font-style:normal;font-variant:normal;font-weight:normal;font-stretch:normal;font-size:10.5833px;line-height:1.25;font-family:sans-serif;-inkscape-font-specification:'sans-serif, Normal';font-variant-ligatures:normal;font-variant-caps:normal;font-variant-numeric:normal;font-variant-east-asian:normal;fill:#000000;fill-opacity:1;stroke:none;stroke-width:0.264583"
       x="98.43119"
       y="151.43747"
       id="text10320"><tspan
         id="tspan44024"
         x="98.43119"
         y="151.43747">â</tspan></text>
    <text
       xml:space="preserve"
       style="font-style:normal;font-variant:normal;font-weight:normal;font-stretch:normal;font-size:6.35px;line-height:1.25;font-family:sans-serif;-inkscape-font-specification:'sans-serif, Normal';font-variant-ligatures:normal;font-variant-caps:normal;font-variant-numeric:normal;font-variant-east-asian:normal;fill:#000000;fill-opacity:1;stroke:none;stroke-width:0.264583"
       x="91.405014"
       y="109.22408"
       id="text14074"><tspan
         style="font-style:normal;font-variant:normal;font-weight:normal;font-stretch:normal;font-size:6.35px;font-family:sans-serif;-inkscape-font-specification:'sans-serif, Normal';font-variant-ligatures:normal;font-variant-caps:normal;font-variant-numeric:normal;font-variant-east-asian:normal;stroke-width:0.264583"
         x="91.405014"
         y="109.22408"
         id="tspan14076">Optička </tspan><tspan
         style="font-style:normal;font-variant:normal;font-weight:normal;font-stretch:normal;font-size:6.35px;font-family:sans-serif;-inkscape-font-specification:'sans-serif, Normal';font-variant-ligatures:normal;font-variant-caps:normal;font-variant-numeric:normal;font-variant-east-asian:normal;stroke-width:0.264583"
         x="91.405014"
         y="117.16158"
         id="tspan55740">šupljina</tspan></text>
    <text
       xml:space="preserve"
       style="font-style:normal;font-variant:normal;font-weight:normal;font-stretch:normal;font-size:6.35px;line-height:1.25;font-family:sans-serif;-inkscape-font-specification:'sans-serif, Normal';font-variant-ligatures:normal;font-variant-caps:normal;font-variant-numeric:normal;font-variant-east-asian:normal;fill:#000000;fill-opacity:1;stroke:none;stroke-width:0.264583"
       x="18.181406"
       y="117.61275"
       id="text16698"><tspan
         style="font-style:normal;font-variant:normal;font-weight:normal;font-stretch:normal;font-size:6.35px;font-family:sans-serif;-inkscape-font-specification:'sans-serif, Normal';font-variant-ligatures:normal;font-variant-caps:normal;font-variant-numeric:normal;font-variant-east-asian:normal;stroke-width:0.264583"
         x="18.181406"
         y="117.61275"
         id="tspan16700">Laser</tspan></text>
    <g
       id="g58940"
       transform="translate(-13.52253,-1.6999835)">
      <rect
         style="fill:#280b0b;fill-rule:evenodd;stroke-width:0.264583"
         id="rect31"
         width="48.19273"
         height="47.384415"
         x="146.2464"
         y="59.615479" />
      <rect
         style="fill:#280b0b;fill-rule:evenodd;stroke-width:0.264583"
         id="rect31-7"
         width="48.19273"
         height="47.384415"
         x="147.0031"
         y="158.22884" />
      <rect
         style="fill:#280b0b;fill-rule:evenodd;stroke-width:0.264583"
         id="rect33"
         width="17.291077"
         height="51.548508"
         x="159.58485"
         y="106.79919" />
      <g
         id="g17072"
         style="fill:#800000">
        <path
           id="path17084"
           style="fill:#e9e9ff;fill-rule:evenodd;stroke:none;stroke-width:1.00121;stroke-linejoin:round"
           d="m 164.54622,134.50467 4.00253,7.60272 -3.6059,-1.49449 -3.41891,-7.36083 z"
           points="168.54875,142.10739 164.94285,140.6129 161.52394,133.25207 164.54622,134.50467 " />
        <path
           id="path17074"
           style="fill:#353564;fill-rule:evenodd;stroke:none;stroke-width:1.00121;stroke-linejoin:round"
           d="m 169.80441,127.45139 -3.17361,-1.31532 -5.10686,7.116 3.02228,1.2526 z"
           points="166.6308,126.13607 161.52394,133.25207 164.54622,134.50467 169.80441,127.45139 " />
        <path
           id="path17076"
           style="fill:#4d4d9f;fill-rule:evenodd;stroke:none;stroke-width:1.00121;stroke-linejoin:round"
           d="m 169.80441,127.45139 5.32061,6.61713 -6.57627,8.03887 -4.00253,-7.60272 z"
           points="175.12502,134.06852 168.54875,142.10739 164.54622,134.50467 169.80441,127.45139 " />
        <path
           id="path17082"
           style="fill:#afafde;fill-rule:evenodd;stroke:none;stroke-width:1.00121;stroke-linejoin:round"
           d="m 166.6308,126.13607 4.67081,6.3478 -6.35876,8.12903 -3.41891,-7.36083 z"
           points="171.30161,132.48387 164.94285,140.6129 161.52394,133.25207 166.6308,126.13607 " />
        <path
           id="path17080"
           style="fill:#d7d7ff;fill-rule:evenodd;stroke:none;stroke-width:1.00121;stroke-linejoin:round"
           d="m 175.12502,134.06852 -3.82341,-1.58465 -6.35876,8.12903 3.6059,1.49449 z"
           points="171.30161,132.48387 164.94285,140.6129 168.54875,142.10739 175.12502,134.06852 " />
        <path
           id="path17078"
           style="fill:#8686bf;fill-rule:evenodd;stroke:none;stroke-width:1.00121;stroke-linejoin:round"
           d="m 169.80441,127.45139 5.32061,6.61713 -3.82341,-1.58465 -4.67081,-6.3478 z"
           points="175.12502,134.06852 171.30161,132.48387 166.6308,126.13607 169.80441,127.45139 " />
      </g>
    </g>
    <g
       id="g52180"
       transform="translate(-0.60272182,-0.21663437)">
      <rect
         style="fill:#00ff00;stroke-width:0.264583"
         id="rect595"
         width="19.112402"
         height="2.1487157"
         x="17.162441"
         y="129.82532" />
      <path
         id="rect51809"
         style="fill:#00ff00;stroke-width:0.0939326"
         d="m 35.948721,127.93491 -0.04031,0.0599 c 0.02492,0.12369 0.02521,0.0613 0.0067,0.1664 -2.65e-4,0.002 0.0011,-0.004 0.0026,-0.004 2.64e-4,0 0.0011,0.0346 0.0021,0.0656 0.0019,0.0388 7.94e-4,0.0775 5.29e-4,0.11627 1.01e-4,0.0692 3.5e-5,0.13803 0,0.20722 -3.4e-5,0.0395 -5e-6,0.0789 0,0.11834 -5e-6,0.0361 0,0.0723 0,0.10853 v 0.14004 0.10438 0.16227 0.0982 0.1695 0.12144 0.17312 0.15555 0.14469 0.11369 0.11833 0.032 c 0.04419,0.045 0.07246,0.1186 0.09353,0.15606 -0.0067,0.0873 5.29e-4,0.0998 -0.01138,0.13332 1.33e-4,0.002 -1.48e-4,10e-5 0,0.002 0.004,0.0432 0.0011,0.0869 0.0011,0.13023 2.35e-4,0.0573 5.29e-4,0.11426 5.29e-4,0.17156 -5.1e-5,0.0357 -3e-6,0.0713 0,0.10697 -6e-6,0.0361 0,0.0724 0,0.10852 v 0.12816 0.11627 0.11989 0.11731 0.11007 0.17363 0.16019 0.15659 0.17105 0.15451 0.18603 0.18604 0.1695 0.0992 0.10438 0.12041 0.17621 0.11783 c 0.0013,0.0176 0.0016,0.0357 0,0.0548 v 0.0362 l 1.914612,-2.87425 z m -1.444358,2.16885 -0.04599,0.0682 c 0.0154,-0.002 0.0307,-0.004 0.04599,-0.006 -5e-5,-0.0208 5e-5,-0.0417 0,-0.0625 z m 1.100709,0.3359 c -0.0019,0.003 -0.0071,0.0154 -0.0072,0.0207 -6.1e-5,0.003 3.2e-5,0.007 0,0.01 0.0026,-0.01 0.0048,-0.0178 0.0078,-0.0294 5.29e-4,-0.002 8.7e-5,-0.002 -5.29e-4,-10e-4 z m -0.08113,0.0656 v 0.0599 c 0.01312,-0.003 0.02569,-0.006 0.03721,-0.009 -0.014,-0.016 -0.02667,-0.033 -0.03721,-0.0512 z m 0.05323,1.28571 c -0.01299,0.0476 -0.03021,0.0957 -0.05374,0.13953 2.44e-4,0.009 1.8e-4,0.0183 5.29e-4,0.0274 0.01738,-0.002 0.03509,-0.004 0.05323,-0.003 v -0.0755 z m 0.352949,1.68155 c 0.005,0.01 0.0092,0.019 0.01394,0.0284 -0.0013,-0.006 -7.94e-4,-0.005 -0.0026,-0.0139 -0.0028,-0.003 -0.0093,-0.0119 -0.01138,-0.0145 z" />
    </g>
    <text
       xml:space="preserve"
       style="font-style:normal;font-weight:normal;font-size:6.35px;line-height:1.25;font-family:sans-serif;fill:#000000;fill-opacity:1;stroke:none;stroke-width:0.264583;-inkscape-font-specification:'sans-serif, Normal';font-stretch:normal;font-variant:normal;font-variant-ligatures:normal;font-variant-caps:normal;font-variant-numeric:normal;font-variant-east-asian:normal"
       x="167.76753"
       y="117.88831"
       id="text62002"><tspan
         id="tspan62000"
         style="stroke-width:0.264583;-inkscape-font-specification:'sans-serif, Normal';font-family:sans-serif;font-weight:normal;font-style:normal;font-stretch:normal;font-variant:normal;font-size:6.35px;font-variant-ligatures:normal;font-variant-caps:normal;font-variant-numeric:normal;font-variant-east-asian:normal"
         x="167.76753"
         y="117.88831">Mehanički</tspan><tspan
         style="stroke-width:0.264583;-inkscape-font-specification:'sans-serif, Normal';font-family:sans-serif;font-weight:normal;font-style:normal;font-stretch:normal;font-variant:normal;font-size:6.35px;font-variant-ligatures:normal;font-variant-caps:normal;font-variant-numeric:normal;font-variant-east-asian:normal"
         x="167.76753"
         y="131.11743"
         id="tspan62004">mod</tspan></text>
  </g>
</svg>
